<?xml version="1.0" encoding="UTF-8"?>
<svg width="272px" height="36px" viewBox="0 0 272 36" version="1.1" xmlns="http://www.w3.org/2000/svg" xmlns:xlink="http://www.w3.org/1999/xlink">
    <title> </title>
    <g id="-" stroke="none" stroke-width="1" fill="none" fill-rule="evenodd">
        <g id="编组" transform="translate(148.272727, 11.727273)" fill="#FFFFFF">
            <rect id="矩形" x="0" y="0" width="1.45454545" height="1.45454545"></rect>
            <rect id="矩形备份" x="5.81818182" y="0.013986014" width="1.45454545" height="1.45454545"></rect>
            <rect id="矩形备份-16" x="8.72727273" y="0.727272727" width="5.09090909" height="1.45454545"></rect>
            <rect id="矩形备份-7" x="8.72727273" y="0.013986014" width="1.45454545" height="3.58041958"></rect>
            <rect id="矩形备份-17" x="12.3636364" y="2.90909091" width="1.45454545" height="6.54545455"></rect>
            <rect id="矩形备份-18" x="8.72727273" y="4.48951049" width="1.45454545" height="2.97763916"></rect>
            <rect id="矩形备份-2" x="5.81818182" y="5.27272727" width="1.45454545" height="1.45454545"></rect>
            <rect id="矩形备份-3" x="0.013986014" y="5.28671329" width="1.45454545" height="1.45454545"></rect>
            <rect id="矩形备份-4" x="0.013986014" y="8.06993007" width="1.45454545" height="2.90909091"></rect>
            <rect id="矩形备份-4" transform="translate(3.531132, 12.162829) rotate(-60.000000) translate(-3.531132, -12.162829) " x="2.80385948" y="8.5264658" width="1.45454545" height="7.27272727"></rect>
            <rect id="矩形备份-4" transform="translate(3.636364, 12.363636) rotate(-115.000000) translate(-3.636364, -12.363636) " x="2.90909091" y="8.72727273" width="1.45454545" height="7.27272727"></rect>
            <rect id="矩形备份-19" transform="translate(10.651961, 11.529857) rotate(-135.000000) translate(-10.651961, -11.529857) " x="9.92468844" y="7.89349337" width="1.45454545" height="7.27272727"></rect>
            <rect id="矩形备份-19" transform="translate(11.257073, 10.653782) rotate(-208.000000) translate(-11.257073, -10.653782) " x="10.5298007" y="6.65378195" width="1.45454545" height="8"></rect>
            <polygon id="矩形备份-5" points="5.81818182 8.06993007 7.27272727 8.06993007 7.27272727 11.4802824 5.81818182 11.4802824"></polygon>
            <rect id="矩形" x="2.90909091" y="0" width="1.45454545" height="6.72727273"></rect>
            <rect id="矩形" transform="translate(3.643357, 3.363636) rotate(-90.000000) translate(-3.643357, -3.363636) " x="2.91608392" y="-0.272727273" width="1.45454545" height="7.27272727"></rect>
            <rect id="矩形备份-6" transform="translate(3.643357, 8.804196) rotate(-90.000000) translate(-3.643357, -8.804196) " x="2.91608392" y="5.16783217" width="1.45454545" height="7.27272727"></rect>
        </g>
        <g id="编组" transform="translate(163.545455, 11.727273)" fill="#FFFFFF">
            <rect id="矩形" x="2.40559441" y="0" width="1.45454545" height="14.5454545"></rect>
            <rect id="矩形备份-11" x="6.0979021" y="0" width="1.45454545" height="14.5454545"></rect>
            <rect id="矩形备份-13" x="13.1468531" y="0" width="1.45454545" height="5.38461538"></rect>
            <rect id="矩形" transform="translate(2.965035, 2.524476) rotate(-90.000000) translate(-2.965035, -2.524476) " x="2.23776224" y="0.286713287" width="1.45454545" height="4.47552448"></rect>
            <rect id="矩形备份-10" transform="translate(11.020979, 0.727273) rotate(-90.000000) translate(-11.020979, -0.727273) " x="10.2937063" y="-2.85314685" width="1.45454545" height="7.16083916"></rect>
            <rect id="矩形备份-12" transform="translate(11.020979, 4.657343) rotate(-90.000000) translate(-11.020979, -4.657343) " x="10.2937063" y="1.07692308" width="1.45454545" height="7.16083916"></rect>
            <rect id="矩形备份-14" transform="translate(11.636364, 8.000000) rotate(-90.000000) translate(-11.636364, -8.000000) " x="10.9090909" y="5.09090909" width="1.45454545" height="5.81818182"></rect>
            <rect id="矩形备份-20" transform="translate(11.636364, 10.181818) rotate(-90.000000) translate(-11.636364, -10.181818) " x="10.9090909" y="7.27272727" width="1.45454545" height="5.81818182"></rect>
            <rect id="矩形备份-21" transform="translate(11.636364, 13.818182) rotate(-90.000000) translate(-11.636364, -13.818182) " x="10.9090909" y="10.9090909" width="1.45454545" height="5.81818182"></rect>
            <rect id="矩形备份-15" x="10.9090909" y="5.81818182" width="1.45454545" height="5.09090909"></rect>
            <rect id="矩形备份-22" x="8.72727273" y="9.45454545" width="1.45454545" height="5.09090909"></rect>
            <rect id="矩形备份-23" x="13.0909091" y="9.45454545" width="1.45454545" height="5.09090909"></rect>
            <rect id="矩形备份-9" transform="translate(2.181818, 8.111888) rotate(-90.000000) translate(-2.181818, -8.111888) " x="1.45454545" y="6.54545455" width="1.45454545" height="3.13286713"></rect>
            <rect id="矩形备份-9" transform="translate(4.143374, 7.395499) rotate(-135.000000) translate(-4.143374, -7.395499) " x="3.41610158" y="5.94095349" width="1.45454545" height="2.90909091"></rect>
            <rect id="矩形备份-8" transform="translate(2.293706, 13.818182) rotate(-90.000000) translate(-2.293706, -13.818182) " x="1.56643357" y="12.2517483" width="1.45454545" height="3.13286713"></rect>
        </g>
        <g id="编组-5" transform="translate(242.818182, 11.727273)" fill="#FFFFFF">
            <rect id="矩形" x="0.895104895" y="0" width="13.0909091" height="1.45454545"></rect>
            <rect id="矩形" transform="translate(7.272727, 7.272727) rotate(-270.000000) translate(-7.272727, -7.272727) " x="0" y="6.54545455" width="14.5454545" height="1.45454545"></rect>
            <rect id="矩形" transform="translate(3.218289, 4.561117) rotate(-300.000000) translate(-3.218289, -4.561117) " x="1.66584189" y="3.83384464" width="3.1048951" height="1.45454545"></rect>
            <rect id="矩形" transform="translate(11.734266, 4.561117) rotate(-240.000000) translate(-11.734266, -4.561117) " x="10.1818182" y="3.83384464" width="3.1048951" height="1.45454545"></rect>
            <rect id="矩形备份-30" x="0" y="7.16083916" width="14.5454545" height="1.45454545"></rect>
        </g>
        <g id="编组" transform="translate(117.000000, 11.727273)" fill="#FFFFFF">
            <rect id="矩形" x="0" y="0" width="1.45454545" height="14.5454545"></rect>
            <rect id="矩形备份-5" x="7.27272727" y="3.63636364" width="1.45454545" height="5.09090909"></rect>
            <rect id="矩形备份-6" transform="translate(5.818182, 10.013986) rotate(-315.000000) translate(-5.818182, -10.013986) " x="5.09090909" y="7.27272727" width="1.45454545" height="5.48251748"></rect>
            <rect id="矩形备份-7" transform="translate(10.181818, 10.013986) rotate(-45.000000) translate(-10.181818, -10.013986) " x="9.45454545" y="7.27272727" width="1.45454545" height="5.48251748"></rect>
            <rect id="矩形备份-2" x="2.90909091" y="2.18181818" width="1.45454545" height="2.90909091"></rect>
            <rect id="矩形" x="0" y="0" width="13.0909091" height="1.45454545"></rect>
            <rect id="矩形备份-3" x="2.90909091" y="2.90909091" width="10.1818182" height="1.45454545"></rect>
            <rect id="矩形备份-4" x="2.90909091" y="6.54545455" width="10.1818182" height="1.45454545"></rect>
            <rect id="矩形备份" x="0" y="13.0909091" width="13.0909091" height="1.45454545"></rect>
        </g>
        <g id="编组-6" transform="translate(258.090909, 11.000000)" fill="#FFFFFF">
            <rect id="矩形" x="0.727272727" y="6.54545455" width="13.0909091" height="1.45454545"></rect>
            <polygon id="矩形备份-34" transform="translate(3.592801, 3.134471) rotate(-45.000000) translate(-3.592801, -3.134471) " points="0.183156239 2.49164699 7.00244654 2.40719861 7.00244654 3.86174407 0.456991994 3.86174407"></polygon>
            <rect id="矩形备份-34" transform="translate(12.328671, 4.363636) rotate(-126.000000) translate(-12.328671, -4.363636) " x="10.9090909" y="3.63636364" width="2.83916084" height="1.45454545"></rect>
            <rect id="矩形备份-31" x="0.727272727" y="8.72727273" width="13.0909091" height="1.45454545"></rect>
            <rect id="矩形" x="0.727272727" y="8.72727273" width="1.45454545" height="6.54545455"></rect>
            <rect id="矩形备份-35" x="0.727272727" y="5.09090909" width="1.45454545" height="2.90909091"></rect>
            <rect id="矩形备份-70" x="12.3636364" y="8.72727273" width="1.45454545" height="6.54545455"></rect>
            <rect id="矩形备份-71" x="12.3636364" y="5.09090909" width="1.45454545" height="2.90909091"></rect>
            <rect id="矩形备份-33" x="0.727272727" y="13.8181818" width="13.0909091" height="1.45454545"></rect>
        </g>
        <g id="编组-6" transform="translate(195.545455, 11.727273)" fill="#FFFFFF">
            <rect id="矩形" x="2.18181818" y="5.81818182" width="10.1818182" height="1.45454545"></rect>
            <rect id="矩形备份-34" transform="translate(3.950785, 2.697310) rotate(-30.000000) translate(-3.950785, -2.697310) " x="-0.182082414" y="1.97003769" width="8.26573427" height="1.45454545"></rect>
            <rect id="矩形备份-57" transform="translate(10.398601, 2.697310) rotate(-150.000000) translate(-10.398601, -2.697310) " x="6.26573427" y="1.97003769" width="8.26573427" height="1.45454545"></rect>
            <rect id="矩形备份-31" x="0.727272727" y="8.72727273" width="13.0909091" height="1.45454545"></rect>
            <rect id="矩形备份-33" x="0.727272727" y="13.0909091" width="13.0909091" height="1.45454545"></rect>
            <rect id="矩形备份-31" transform="translate(1.454545, 11.636364) rotate(-270.000000) translate(-1.454545, -11.636364) " x="-1.45454545" y="10.9090909" width="5.81818182" height="1.45454545"></rect>
            <rect id="矩形备份-32" transform="translate(13.090909, 12.000000) rotate(-270.000000) translate(-13.090909, -12.000000) " x="10.5454545" y="11.2727273" width="5.09090909" height="1.45454545"></rect>
        </g>
        <g id="编组-2" transform="translate(132.272727, 11.727273)" fill="#FFFFFF">
            <rect id="矩形" x="0" y="0" width="4.47552448" height="1.45454545"></rect>
            <rect id="矩形备份-28" x="5.09090909" y="0.727272727" width="8.72727273" height="1.45454545"></rect>
            <rect id="矩形备份-37" x="5.81818182" y="4.36363636" width="7.27272727" height="1.45454545"></rect>
            <rect id="矩形备份-38" x="5.09090909" y="7.27272727" width="8.72727273" height="1.45454545"></rect>
            <rect id="矩形备份-41" x="10.1818182" y="13.0909091" width="3.63636364" height="1.45454545"></rect>
            <rect id="矩形备份-43" x="5.09090909" y="13.0909091" width="2.90909091" height="1.45454545"></rect>
            <rect id="矩形备份-26" x="0" y="8.72727273" width="4.47552448" height="1.45454545"></rect>
            <rect id="矩形备份-24" x="0" y="0" width="1.45454545" height="14.5454545"></rect>
            <rect id="矩形备份-25" x="3.02097902" y="0" width="1.45454545" height="10.1818182"></rect>
            <rect id="矩形备份-27" x="8.61538462" y="0" width="1.45454545" height="1"></rect>
            <rect id="矩形备份-29" x="5.09090909" y="2.18181818" width="1.79020979" height="1"></rect>
            <rect id="矩形备份-39" x="6.54545455" y="7.27272727" width="1.45454545" height="7.27272727"></rect>
            <rect id="矩形备份-40" x="10.1818182" y="7.27272727" width="1.45454545" height="7.27272727"></rect>
            <rect id="矩形备份-42" x="12.3636364" y="12.3636364" width="1.45454545" height="1"></rect>
            <rect id="矩形备份-36" x="12.3636364" y="2.18181818" width="1.45454545" height="1"></rect>
        </g>
        <g id="编组-3" transform="translate(179.545455, 11.727273)" fill="#FFFFFF">
            <rect id="矩形" transform="translate(2.676331, 2.627932) rotate(-330.000000) translate(-2.676331, -2.627932) " x="1.94905867" y="0.0195400604" width="1.45454545" height="5.21678322"></rect>
            <rect id="矩形备份-44" transform="translate(2.935073, 6.876031) rotate(-330.000000) translate(-2.935073, -6.876031) " x="2.20779993" y="3.60330359" width="1.45454545" height="6.54545455"></rect>
            <rect id="矩形" x="0.727272727" y="4.47552448" width="3.58041958" height="1.45454545"></rect>
            <rect id="矩形备份-47" x="5.81818182" y="0.727272727" width="8.72727273" height="1.45454545"></rect>
            <rect id="矩形备份-51" x="6.54545455" y="4.36363636" width="7.27272727" height="1.45454545"></rect>
            <rect id="矩形备份-52" x="5.81818182" y="7.27272727" width="8.72727273" height="1.45454545"></rect>
            <rect id="矩形备份-54" x="8.72727273" y="13.0909091" width="1.45454545" height="1.45454545"></rect>
            <rect id="矩形备份-48" x="8.78321678" y="0" width="1.79020979" height="1"></rect>
            <rect id="矩形备份-53" x="9.45454545" y="9.45454545" width="1.45454545" height="5.09090909"></rect>
            <rect id="矩形备份-49" x="5.81818182" y="2.18181818" width="1.45454545" height="1"></rect>
            <rect id="矩形备份-55" x="5.81818182" y="10.1818182" width="1.45454545" height="4.36363636"></rect>
            <rect id="矩形备份-56" x="13.0909091" y="10.1818182" width="1.45454545" height="4.36363636"></rect>
            <rect id="矩形备份-50" x="13.0909091" y="2.18181818" width="1.45454545" height="1"></rect>
            <rect id="矩形备份-45" x="0.727272727" y="9.45454545" width="4.34965035" height="1.45454545"></rect>
            <rect id="矩形备份-46" x="0.727272727" y="13.0909091" width="4.34965035" height="1.45454545"></rect>
        </g>
        <g id="编组-4" transform="translate(211.545455, 11.727273)" fill="#FFFFFF">
            <rect id="矩形" x="-4.08239099e-13" y="0.727272727" width="13.8741259" height="1.45454545"></rect>
            <rect id="矩形备份-63" x="2.68531469" y="13.0909091" width="11.1888112" height="1.45454545"></rect>
            <rect id="矩形备份-58" x="6.6013986" y="0" width="1.45454545" height="1"></rect>
            <rect id="矩形备份-59" x="0" y="0.727272727" width="1.45454545" height="13.8181818"></rect>
            <rect id="矩形备份-60" transform="translate(4.313411, 7.761646) rotate(-15.000000) translate(-4.313411, -7.761646) " x="3.58613832" y="4.16724032" width="1.45454545" height="7.18881119"></rect>
            <rect id="矩形备份-62" transform="translate(11.350925, 7.761646) rotate(-345.000000) translate(-11.350925, -7.761646) " x="10.6236519" y="4.16724032" width="1.45454545" height="7.18881119"></rect>
            <rect id="矩形备份-61" transform="translate(7.460264, 7.316165) rotate(-15.000000) translate(-7.460264, -7.316165) " x="6.73299147" y="4.54693466" width="1.45454545" height="5.53846154"></rect>
        </g>
        <g id="编组-7" transform="translate(227.545455, 11.727273)" fill="#FFFFFF">
            <rect id="矩形" x="0" y="0" width="1.45454545" height="14.5454545"></rect>
            <rect id="矩形备份-69" x="6.37762238" y="0" width="1.45454545" height="14.5454545"></rect>
            <rect id="矩形备份-65" transform="translate(6.909091, 0.895105) rotate(-270.000000) translate(-6.909091, -0.895105) " x="6.01398601" y="-6.01398601" width="1.79020979" height="13.8181818"></rect>
            <rect id="矩形备份-66" transform="translate(6.909091, 5.538462) rotate(-270.000000) translate(-6.909091, -5.538462) " x="6.18181818" y="-1.37062937" width="1.45454545" height="13.8181818"></rect>
            <rect id="矩形备份-67" transform="translate(6.909091, 10.013986) rotate(-270.000000) translate(-6.909091, -10.013986) " x="6.18181818" y="3.1048951" width="1.45454545" height="13.8181818"></rect>
            <rect id="矩形备份-68" transform="translate(12.363636, 13.818182) rotate(-270.000000) translate(-12.363636, -13.818182) " x="11.6363636" y="12.3636364" width="1.45454545" height="2.90909091"></rect>
            <rect id="矩形备份-64" x="12.3636364" y="0" width="1.45454545" height="14.5454545"></rect>
        </g>
        <rect id="矩形" fill="#FFFFFF" x="104" y="9" width="1" height="20"></rect>
        <g id="火树科技logo备份" transform="translate(0.000000, 3.000000)" fill="#FFFFFF">
            <g id="编组">
                <path d="M3.50263217,8.30712761 C1.56818731,8.30712761 0,9.87531493 0,11.8097598 C0,13.7442046 1.56818731,15.3123919 3.50263217,15.3123919 C5.43707702,15.3123919 7.00526433,13.7442046 7.00526433,11.8097598 C7.00526433,9.87531493 5.43707702,8.30712761 3.50263217,8.30712761 Z M3.51236514,13.1362345 C2.77330976,13.1362345 2.17417368,12.5375014 2.17417368,11.7989419 C2.17417368,11.0603825 2.77330976,10.4616494 3.51236514,10.4616494 C4.25145153,10.4616494 4.85055661,11.0603825 4.85055661,11.7989419 C4.85055661,12.5375014 4.25145153,13.1362345 3.51236514,13.1362345 Z" id="形状"></path>
                <path d="M3.50263217,13.1426198 L3.53362891,13.1426198 C4.11565479,13.1426198 4.58751823,13.6144523 4.58751823,14.1965091 L4.58751823,19.0939948 C4.58751823,19.6760207 4.11565479,20.1478841 3.53362891,20.1478841 L3.50263217,20.1478841 C2.92057529,20.1478841 2.44874284,19.6760207 2.44874284,19.0939948 L2.44874284,14.1965091 C2.44874284,13.6144523 2.92057529,13.1426198 3.50263217,13.1426198 Z" id="路径"></path>
                <path d="M3.50263217,22.4106465 L3.53362891,22.4106465 C4.11565479,22.4106465 4.58751823,22.88251 4.58751823,23.4645358 L4.58751823,28.3620215 C4.58751823,28.9440474 4.11565479,29.4159108 3.53362891,29.4159108 L3.50263217,29.4159108 C2.92057529,29.4159108 2.44874284,28.9440474 2.44874284,28.3620215 L2.44874284,23.4645358 C2.44874284,22.88251 2.92057529,22.4106465 3.50263217,22.4106465 Z" id="路径"></path>
                <path d="M18.5980469,8.30712761 C16.663602,8.30712761 15.0954147,9.87531493 15.0954147,11.8097598 C15.0954147,13.7442046 16.663602,15.3123919 18.5980469,15.3123919 C20.5324917,15.3123919 22.1006791,13.7442046 22.1006791,11.8097598 C22.1006791,9.87531493 20.5324917,8.30712761 18.5980469,8.30712761 Z M18.6077799,13.1362345 C17.8687245,13.1362345 17.2695884,12.5375014 17.2695884,11.7989419 C17.2695884,11.0603825 17.8687245,10.4616494 18.6077799,10.4616494 C19.3468663,10.4616494 19.9459713,11.0603825 19.9459713,11.7989419 C19.9459713,12.5375014 19.3468663,13.1362345 18.6077799,13.1362345 Z" id="形状"></path>
                <path d="M18.5980469,13.1426198 L18.6290436,13.1426198 C19.2111005,13.1426198 19.682933,13.6144523 19.682933,14.1965091 L19.682933,19.0939948 C19.682933,19.6760207 19.2111005,20.1478841 18.6290436,20.1478841 L18.5980469,20.1478841 C18.01599,20.1478841 17.5441576,19.6760207 17.5441576,19.0939948 L17.5441576,14.1965091 C17.5441576,13.6144523 18.01599,13.1426198 18.5980469,13.1426198 Z" id="路径"></path>
                <path d="M18.5980469,22.4106465 L18.6290436,22.4106465 C19.2111005,22.4106465 19.682933,22.88251 19.682933,23.4645358 L19.682933,28.3620215 C19.682933,28.9440474 19.2111005,29.4159108 18.6290436,29.4159108 L18.5980469,29.4159108 C18.01599,29.4159108 17.5441576,28.9440474 17.5441576,28.3620215 L17.5441576,23.4645358 C17.5441576,22.88251 18.01599,22.4106465 18.5980469,22.4106465 Z" id="路径"></path>
                <path d="M11.0226284,0 C8.60299154,0 6.64148653,1.96280687 6.64148653,4.3840866 C6.64148653,6.80536632 8.60299154,8.7681732 11.0226284,8.7681732 C13.4422653,8.7681732 15.4037703,6.80536632 15.4037703,4.3840866 C15.4037703,1.96280687 13.4422653,0 11.0226284,0 Z M11.0348412,6.04436524 C10.1103942,6.04436524 9.36101694,5.29498794 9.36101694,4.37054102 C9.36101694,3.4461251 10.1103942,2.6967168 11.0348412,2.6967168 C11.9592571,2.6967168 12.7086654,3.4461251 12.7086654,4.37054102 C12.7086654,5.29498794 11.9592571,6.04436524 11.0348412,6.04436524 Z" id="形状"></path>
                <path d="M11.0348412,6.04436524 L11.0658379,6.04436524 C11.6478638,6.04436524 12.1197272,6.51622869 12.1197272,7.09825457 L12.1197272,22.4106465 C12.1197272,22.9926724 11.6478638,23.4645358 11.0658379,23.4645358 L11.0348412,23.4645358 C10.4527843,23.4645358 9.98095183,22.9926724 9.98095183,22.4106465 L9.98095183,7.09825457 C9.98095183,6.51622869 10.4527843,6.04436524 11.0348412,6.04436524 Z" id="路径"></path>
            </g>
            <g id="编组" transform="translate(62.055483, 8.462111)">
                <g transform="translate(6.509316, 0.000000)" id="路径">
                    <polygon points="5.26944662 0 6.81928386 0 6.81928386 15.4983724 5.26944662 15.4983724"></polygon>
                    <polygon points="0 9.63998764 7.74918621 9.63998764 7.74918621 11.1898249 0 11.1898249"></polygon>
                    <polygon points="1.40818212 4.68050847 4.02957683 7.30190318 2.93133116 8.40011785 0.309967448 5.77872314"></polygon>
                    <polygon points="1.71814957 0.619934897 4.33954428 3.24132961 3.24129861 4.33954428 0.619934897 1.71814957"></polygon>
                </g>
                <g id="路径">
                    <polygon points="0.619934897 0 5.26944662 0 5.26944662 1.54983724 0.619934897 1.54983724"></polygon>
                    <polygon points="2.16977214 0.929902345 3.71960938 0.929902345 3.71960938 15.4983724 2.16977214 15.4983724"></polygon>
                    <polygon points="0.619934897 3.09967448 5.26944662 3.09967448 5.26944662 4.64951172 0.619934897 4.64951172"></polygon>
                    <polygon points="0 11.2803664 2.19844413 3.075714 3.69546292 3.47684287 1.49701879 11.6814952"></polygon>
                    <polygon points="3.23141065 4.64951172 6.35433269 7.77243377 5.26169743 8.86506902 2.13877539 5.74214698"></polygon>
                </g>
            </g>
            <g id="编组" transform="translate(27.990061, 8.462111)">
                <polygon id="路径" points="6.35433269 0 7.90416993 0 7.90416993 8.67908855 6.35433269 8.67908855"></polygon>
                <polygon id="路径" points="6.81013982 7.59231168 7.90602974 8.68820159 1.09588991 15.4983724 0 14.4024825"></polygon>
                <polygon id="路径" points="7.44997463 7.59420248 6.35433269 8.68987542 13.1628607 15.4983724 14.2585026 14.4026995"></polygon>
                <polygon id="路径" points="12.7614528 1.54890734 14.2585026 1.95006721 12.7087274 7.73393581 11.2116776 7.33280693"></polygon>
                <polygon id="路径" points="1.49255526 1.54983724 0 1.95189602 1.54512574 7.74918621 3.03768099 7.34712743"></polygon>
            </g>
            <g id="编组" transform="translate(44.139365, 8.462111)">
                <g id="路径">
                    <polygon points="0.588938152 1.54983724 5.23844988 1.54983724 5.23844988 3.09967448 0.588938152 3.09967448"></polygon>
                    <polygon points="2.13877539 0 3.68861263 0 3.68861263 15.4983724 2.13877539 15.4983724"></polygon>
                    <polygon points="2.19091192 2.91369401 3.68861263 3.31534983 1.49770072 11.6547761 0 11.2531512"></polygon>
                    <polygon points="3.23962479 5.57941407 5.54841732 7.88820661 4.44753693 8.989056 2.13877539 6.68029446"></polygon>
                </g>
                <path d="M9.58847105,9.60806099 L10.5624198,8.63411227 C10.7192943,8.49233316 10.8178639,8.2872897 10.8178639,8.05915366 L10.8178639,2.66572006 L10.8166861,2.66572006 C10.7936865,2.0815864 10.3398011,1.60839009 9.76397462,1.55504469 L9.76397462,1.54983724 L7.28423503,1.54983724 L7.28423503,1.55101512 C6.67930256,1.57485161 6.19336659,2.06078758 6.1695301,2.66572006 L6.16835222,2.66572006 L6.16835222,8.05915366 C6.16835222,8.27727775 6.25861474,8.47426206 6.40367951,8.61511127 L7.39666023,9.60809199 L4.76649344,12.2382588 L5.86238335,13.3341177 L8.49255014,10.7039509 L10.5309581,12.7423278 L11.626848,11.6464689 L9.58847105,9.60806099 Z M9.2680267,7.47006052 L9.26725178,7.47006052 C9.25100949,7.88371208 8.91075822,8.21413738 8.49310808,8.21413738 C8.07545794,8.21413738 7.73517568,7.88371208 7.71896438,7.47006052 L7.71818946,7.47006052 L7.71818946,3.84359636 L7.71896438,3.84359636 C7.73523767,3.43000679 8.07551994,3.09967448 8.49310808,3.09967448 C8.91069623,3.09967448 9.2509475,3.43000679 9.26725178,3.84359636 L9.2680267,3.84359636 L9.2680267,7.47006052 Z" id="形状"></path>
                <path d="M15.1574082,1.54983724 L15.1574082,0 L13.607571,0 L13.607571,1.54983724 L11.7477663,1.54983724 L11.7477663,3.09967448 L13.607571,3.09967448 L13.607571,7.79521637 L12.5386482,6.72629363 L11.4377988,7.82717402 L13.607571,9.99694615 L13.607571,13.23561 L13.607571,13.2400426 L13.607571,13.5610759 C13.607571,13.7750464 13.4340822,13.9485352 13.2201117,13.9485352 L12.8990784,13.9485352 L12.8946458,13.9485352 L11.7477663,13.9485352 L11.7477663,15.4983724 L14.0725222,15.4983724 L14.0725222,15.4955207 C14.6526882,15.4573017 15.1163375,14.9936524 15.1545255,14.4134863 L15.1574082,14.4134863 L15.1574082,3.09967448 L16.0873106,3.09967448 L16.0873106,1.54983724 L15.1574082,1.54983724 Z" id="路径"></path>
            </g>
            <g id="编组" transform="translate(78.173790, 8.462111)">
                <path d="M3.86306231,5.69041341 L3.09967448,6.45377025 L3.09967448,3.09967448 L4.64951172,3.09967448 L4.64951172,1.54983724 L3.09967448,1.54983724 L3.09967448,0 L1.54983724,0 L1.54983724,1.54983724 L0,1.54983724 L0,3.09967448 L1.54983724,3.09967448 L1.54983724,8.00363849 L0.00647831967,9.54699741 L1.10236823,10.6428873 L1.54983724,10.1954493 L1.54983724,13.23561 L1.54983724,13.2400426 L1.54983724,13.5765742 L1.54906232,13.5765742 C1.54106516,13.7781151 1.37941714,13.9397631 1.1778763,13.9477603 L1.1778763,13.9485352 L0.841344645,13.9485352 L0.83691211,13.9485352 L0,13.9485352 L0,15.4983724 L2.01478841,15.4983724 L2.01478841,15.4955207 C2.59495449,15.4573017 3.0586038,14.9936524 3.09682278,14.4134863 L3.09967448,14.4134863 L3.09967448,8.64561207 L4.95895223,6.78630333 L3.86306231,5.69041341 Z" id="路径"></path>
                <path d="M13.5915147,13.949837 C13.5863072,13.94993 13.5811308,13.95024 13.5759233,13.95024 C13.3342107,13.95024 13.1183804,13.8398606 12.9761363,13.6668987 L12.9725717,13.6652249 L10.959984,11.4425103 L13.4027755,8.73950121 C13.4273559,8.71563371 13.4503245,8.69018539 13.4716193,8.66328021 L13.4769817,8.65742183 L13.4765477,8.65704987 C13.5780001,8.52596463 13.6385677,8.36171288 13.6385677,8.18314063 C13.6385677,8.17275672 13.6381958,8.16243481 13.6377928,8.15214389 L13.6385677,8.15214389 L13.6385677,5.79639128 L13.6381648,5.79639128 C13.6298886,5.1667854 13.121263,4.65815982 12.4916882,4.64991468 L12.4916882,4.64951172 L10.693877,4.64951172 L10.693877,3.09967448 L14.2585026,3.09967448 L14.2585026,1.54983724 L10.693877,1.54983724 L10.693877,0 L9.14403972,0 L9.14403972,1.54983724 L5.57941407,1.54983724 L5.57941407,3.09967448 L9.14403972,3.09967448 L9.14403972,4.64951172 L7.37722527,4.64951172 L7.37722527,4.64985269 C7.37260675,4.64982169 7.36801924,4.64951172 7.36340072,4.64951172 C6.72601466,4.64951172 6.208586,5.16151596 6.19978292,5.79639128 L6.19934897,5.79639128 L6.19934897,8.15214389 L6.20012388,8.15214389 C6.19968993,8.16243481 6.19934897,8.17275672 6.19934897,8.18314063 C6.19934897,8.36205385 6.26016458,8.52673955 6.36201988,8.65788678 L6.35433269,8.66486105 L8.87021448,11.4435022 L6.86419815,13.6632101 L6.86060252,13.664915 C6.71848245,13.8380628 6.50283809,13.9485352 6.26134246,13.9485352 C6.256135,13.9485352 6.25095855,13.9482252 6.24575109,13.9481322 L6.24491418,13.9485352 L5.57941407,13.9485352 L5.57941407,15.4984034 L6.94327084,15.4984034 C7.13938725,15.4984034 7.31839345,15.4253751 7.45487211,15.3052317 L7.46277628,15.3123919 L9.91570369,12.598131 L12.3735286,15.3125779 L12.3814327,15.3054487 C12.5180354,15.4254371 12.6971966,15.4984034 12.893468,15.4984034 L14.2585026,15.4984034 L14.2585026,13.950271 L13.5924136,13.950271 L13.5915147,13.949837 Z M10.4159911,9.73297788 L10.4107527,9.73297788 C10.2796365,9.84862673 10.1075425,9.91895834 9.91895834,9.91895834 C9.73037415,9.91895834 9.55828022,9.84862673 9.42716399,9.73297788 L9.41213057,9.73297788 L7.96489255,8.13459973 L7.96213384,8.12861736 C7.8482518,8.00819501 7.77240277,7.85135148 7.75417668,7.67721177 L7.7492172,7.66645589 L7.7492172,6.97426759 L7.7492172,6.97426759 C7.74958916,6.54688447 8.09634975,6.20055784 8.52413582,6.20055784 L8.52413582,6.19934897 L9.14407072,6.19934897 L10.693908,6.19934897 L11.3138429,6.19934897 L11.3138429,6.20065083 C11.3149587,6.20065083 11.3160746,6.20055784 11.3171595,6.20055784 C11.7457825,6.20055784 12.093225,6.54775238 12.093225,6.97609639 C12.093225,7.00408645 12.0916442,7.03173555 12.0887305,7.05898169 L12.0887305,7.57799119 L12.0887305,7.57802218 C12.0887305,7.57827016 12.0887305,7.57851813 12.0887305,7.57870411 C12.0887305,7.81232658 11.9892929,8.02223653 11.8312715,8.16692934 L10.4957768,9.64473014 C10.4794725,9.66475404 10.4622073,9.68391003 10.4439502,9.70207412 L10.4159911,9.73297788 Z" id="形状"></path>
            </g>
        </g>
    </g>
</svg>